<?xml version="1.0" encoding="utf-8"?>
<!-- Generator: Adobe Illustrator 27.2.0, SVG Export Plug-In . SVG Version: 6.00 Build 0)  -->
<svg version="1.1" id="Layer_1" xmlns="http://www.w3.org/2000/svg" xmlns:xlink="http://www.w3.org/1999/xlink" x="0px" y="0px"
	 viewBox="0 0 256 256" style="enable-background:new 0 0 256 256;" xml:space="preserve">
<style type="text/css">
	.st0{fill:#57D2FF;}
	.st1{fill:#009DFF;}
	.st2{fill:#0074D8;}
</style>
<path class="st0" d="M187.34,224.3h-38.23c-9.21,0-17.71-4.93-22.29-12.91L45.2,69.02c-9.82-17.13,2.55-38.47,22.29-38.47h36.42
	c9.12,0,17.55,4.83,22.16,12.7l83.43,142.37C219.54,202.75,207.19,224.3,187.34,224.3z"/>
<path class="st1" d="M10.01,130.71l20.62-33.5c4.68-7.6,12.96-12.23,21.88-12.23h171.77c19.55,0,31.94,20.97,22.5,38.09l-18.47,33.5
	c-4.52,8.2-13.14,13.29-22.5,13.29H31.89C11.79,169.87-0.52,147.83,10.01,130.71z"/>
<path class="st2" d="M55.65,201.81l16.43,26.16c10.26,16.33,34.18,15.96,43.92-0.68l83.98-143.38c4.61-7.87,4.7-17.58,0.25-25.53
	l-16.37-29.24c-9.75-17.41-34.76-17.54-44.7-0.23L55.12,175.36C50.4,183.6,50.6,193.77,55.65,201.81z"/>
</svg>
